<svg xmlns="http://www.w3.org/2000/svg" viewBox="0 0 1200 770" font-family="Helvetica, -apple-system, 'Segoe UI', Roboto, sans-serif"><rect x="0" y="0" width="1200" height="770" fill="#ffffff"/><defs><marker id="mk_2c5aa0_solid" viewBox="0 0 10 10" refX="9" refY="5" markerWidth="6" markerHeight="6" orient="auto"><path d="M0,0 L10,5 L0,10 z" fill="#2c5aa0"/></marker><marker id="mk_5a8a3a_dashed" viewBox="0 0 10 10" refX="9" refY="5" markerWidth="6" markerHeight="6" orient="auto"><path d="M0,0 L10,5 L0,10 z" fill="#5a8a3a"/></marker><marker id="mk_6a4a8a_dotted" viewBox="0 0 10 10" refX="9" refY="5" markerWidth="6" markerHeight="6" orient="auto"><path d="M0,0 L10,5 L0,10 z" fill="#6a4a8a"/></marker><marker id="mk_c14a3a_solid" viewBox="0 0 10 10" refX="9" refY="5" markerWidth="6" markerHeight="6" orient="auto"><path d="M0,0 L10,5 L0,10 z" fill="#c14a3a"/></marker><marker id="mk_c97a3a_dotted" viewBox="0 0 10 10" refX="9" refY="5" markerWidth="6" markerHeight="6" orient="auto"><path d="M0,0 L10,5 L0,10 z" fill="#c97a3a"/></marker></defs><text x="600" y="30" font-size="18" fill="#2a2a2a" text-anchor="middle" font-weight="700">A reference data mesh on Kubernetes / OpenShift</text><text x="600" y="49" font-size="12" fill="#666666" text-anchor="middle" font-style="italic">each domain is an independently deployed data product — the right protocol per interaction</text><rect x="20" y="64" width="1160" height="70" fill="#fdfbf7" stroke="#e0d8c8" stroke-width="1"/><text x="32" y="80" font-size="12" fill="#8a7a5a" text-anchor="start" font-weight="600">EXTERNAL CLIENTS</text><rect x="110" y="88" width="150" height="36" fill="#efefef" stroke="#4a4a4a" stroke-width="1" rx="6"/><text x="185.0" y="109.5" font-size="11" fill="#2a2a2a" text-anchor="middle" font-weight="600">Browser</text><rect x="290" y="88" width="150" height="36" fill="#efefef" stroke="#4a4a4a" stroke-width="1" rx="6"/><text x="365.0" y="109.5" font-size="11" fill="#2a2a2a" text-anchor="middle" font-weight="600">curl / Postman</text><rect x="470" y="88" width="150" height="36" fill="#efefef" stroke="#4a4a4a" stroke-width="1" rx="6"/><text x="545.0" y="109.5" font-size="11" fill="#2a2a2a" text-anchor="middle" font-weight="600">hey (load-gen)</text><rect x="650" y="88" width="170" height="36" fill="#efefef" stroke="#4a4a4a" stroke-width="1" rx="6"/><text x="735.0" y="109.5" font-size="11" fill="#2a2a2a" text-anchor="middle" font-weight="600">GraphQL Playground</text><rect x="870" y="88" width="150" height="36" fill="#efefef" stroke="#4a4a4a" stroke-width="1" rx="6"/><text x="945.0" y="109.5" font-size="11" fill="#2a2a2a" text-anchor="middle" font-weight="600">ghz (gRPC)</text><rect x="20" y="150" width="1160" height="64" fill="#fdfbf7" stroke="#e0d8c8" stroke-width="1"/><text x="32" y="166" font-size="12" fill="#8a7a5a" text-anchor="start" font-weight="600">INGRESS</text><rect x="300" y="166" width="220" height="36" fill="#fbe8d8" stroke="#c97a3a" stroke-width="1.5" rx="6"/><text x="410.0" y="188.0" font-size="12" fill="#7a3a0a" text-anchor="middle" font-weight="600">Istio Ingress Gateway</text><rect x="700" y="162" width="220" height="44" fill="#fbe8d8" stroke="#c97a3a" stroke-width="1.5" rx="6"/><text x="810.0" y="176.0" font-size="12" fill="#7a3a0a" text-anchor="middle" font-weight="600">GraphQL Federation</text><text x="810.0" y="190.0" font-size="10" fill="#7a5a2a" text-anchor="middle" font-family="'SF Mono', Menlo, monospace">Strawberry · Python</text><polyline points="185,124 380,166" fill="none" stroke="#2c5aa0" stroke-width="1.5" marker-end="url(#mk_2c5aa0_solid)"/><polyline points="345,124 410,166" fill="none" stroke="#2c5aa0" stroke-width="1.5" marker-end="url(#mk_2c5aa0_solid)"/><polyline points="545,124 440,166" fill="none" stroke="#2c5aa0" stroke-width="1.5" marker-end="url(#mk_2c5aa0_solid)"/><polyline points="735,124 800,162" fill="none" stroke="#c97a3a" stroke-width="1.5" stroke-dasharray="2,3" marker-end="url(#mk_c97a3a_dotted)"/><polyline points="945,124 880,162" fill="none" stroke="#5a8a3a" stroke-width="1.5" stroke-dasharray="6,4" marker-end="url(#mk_5a8a3a_dashed)"/><rect x="20" y="230" width="1160" height="210" fill="#fdfbf7" stroke="#e0d8c8" stroke-width="1"/><text x="32" y="246" font-size="12" fill="#8a7a5a" text-anchor="start" font-weight="600">SERVICE MESH (ISTIO)</text><rect x="70" y="270" width="160" height="56" fill="#e8eef7" stroke="#2c5aa0" stroke-width="1.5" rx="6"/><text x="150.0" y="290.0" font-size="12" fill="#1a3a6a" text-anchor="middle" font-weight="600">order-service</text><text x="150.0" y="304.0" font-size="10" fill="#7a5a2a" text-anchor="middle" font-family="'SF Mono', Menlo, monospace">FastAPI · Python</text><rect x="80" y="332" width="140" height="34" fill="#f5edd6" stroke="#c19a6b" stroke-width="1" rx="6"/><text x="150.0" y="342.0" font-size="9" fill="#5a3a0a" text-anchor="middle" font-weight="600">istio-proxy (Envoy)</text><text x="150.0" y="353.0" font-size="8" fill="#7a5a2a" text-anchor="middle" font-family="'SF Mono', Menlo, monospace">+ OTEL SDK</text><rect x="280" y="270" width="160" height="56" fill="#e8eef7" stroke="#2c5aa0" stroke-width="1.5" rx="6"/><text x="360.0" y="290.0" font-size="12" fill="#1a3a6a" text-anchor="middle" font-weight="600">inventory-service</text><text x="360.0" y="304.0" font-size="10" fill="#7a5a2a" text-anchor="middle" font-family="'SF Mono', Menlo, monospace">FastAPI · Python</text><rect x="290" y="332" width="140" height="34" fill="#f5edd6" stroke="#c19a6b" stroke-width="1" rx="6"/><text x="360.0" y="342.0" font-size="9" fill="#5a3a0a" text-anchor="middle" font-weight="600">istio-proxy (Envoy)</text><text x="360.0" y="353.0" font-size="8" fill="#7a5a2a" text-anchor="middle" font-family="'SF Mono', Menlo, monospace">+ OTEL SDK</text><rect x="490" y="270" width="160" height="56" fill="#e8eef7" stroke="#2c5aa0" stroke-width="1.5" rx="6"/><text x="570.0" y="290.0" font-size="12" fill="#1a3a6a" text-anchor="middle" font-weight="600">payment-service</text><text x="570.0" y="304.0" font-size="10" fill="#7a5a2a" text-anchor="middle" font-family="'SF Mono', Menlo, monospace">FastAPI · Python</text><rect x="500" y="332" width="140" height="34" fill="#f5edd6" stroke="#c19a6b" stroke-width="1" rx="6"/><text x="570.0" y="342.0" font-size="9" fill="#5a3a0a" text-anchor="middle" font-weight="600">istio-proxy (Envoy)</text><text x="570.0" y="353.0" font-size="8" fill="#7a5a2a" text-anchor="middle" font-family="'SF Mono', Menlo, monospace">+ OTEL SDK</text><rect x="700" y="270" width="160" height="56" fill="#e8eef7" stroke="#2c5aa0" stroke-width="1.5" rx="6"/><text x="780.0" y="290.0" font-size="12" fill="#1a3a6a" text-anchor="middle" font-weight="600">shipping-service</text><text x="780.0" y="304.0" font-size="10" fill="#7a5a2a" text-anchor="middle" font-family="'SF Mono', Menlo, monospace">FastAPI · Python</text><rect x="710" y="332" width="140" height="34" fill="#f5edd6" stroke="#c19a6b" stroke-width="1" rx="6"/><text x="780.0" y="342.0" font-size="9" fill="#5a3a0a" text-anchor="middle" font-weight="600">istio-proxy (Envoy)</text><text x="780.0" y="353.0" font-size="8" fill="#7a5a2a" text-anchor="middle" font-family="'SF Mono', Menlo, monospace">+ OTEL SDK</text><rect x="910" y="270" width="180" height="56" fill="#e8eef7" stroke="#2c5aa0" stroke-width="1.5" rx="6"/><text x="1000.0" y="290.0" font-size="12" fill="#1a3a6a" text-anchor="middle" font-weight="600">notification-service</text><text x="1000.0" y="304.0" font-size="10" fill="#7a5a2a" text-anchor="middle" font-family="'SF Mono', Menlo, monospace">FastAPI · Python</text><rect x="920" y="332" width="160" height="34" fill="#f5edd6" stroke="#c19a6b" stroke-width="1" rx="6"/><text x="1000.0" y="342.0" font-size="9" fill="#5a3a0a" text-anchor="middle" font-weight="600">istio-proxy (Envoy)</text><text x="1000.0" y="353.0" font-size="8" fill="#7a5a2a" text-anchor="middle" font-family="'SF Mono', Menlo, monospace">+ OTEL SDK</text><polyline points="380,202 200,270" fill="none" stroke="#2c5aa0" stroke-width="1.5" marker-end="url(#mk_2c5aa0_solid)"/><text x="250" y="250" font-size="10" fill="#2c5aa0" text-anchor="start" font-family="'SF Mono', Menlo, monospace">REST</text><polyline points="230,298 280,298" fill="none" stroke="#5a8a3a" stroke-width="1.5" stroke-dasharray="6,4" marker-end="url(#mk_5a8a3a_dashed)"/><polyline points="150.0,366 150.0,410 570,410 570,366" fill="none" stroke="#5a8a3a" stroke-width="1.5" stroke-dasharray="6,4" marker-end="url(#mk_5a8a3a_dashed)"/><polyline points="150.0,366 150.0,424 780,424 780,366" fill="none" stroke="#5a8a3a" stroke-width="1.5" stroke-dasharray="6,4" marker-end="url(#mk_5a8a3a_dashed)"/><text x="415" y="404" font-size="10" fill="#5a8a3a" text-anchor="start" font-family="'SF Mono', Menlo, monospace">gRPC (internal sync)</text><polyline points="800,206 180,270" fill="none" stroke="#c97a3a" stroke-width="1.5" stroke-dasharray="2,3"/><polyline points="800,206 360,270" fill="none" stroke="#c97a3a" stroke-width="1.5" stroke-dasharray="2,3"/><polyline points="800,206 570,270" fill="none" stroke="#c97a3a" stroke-width="1.5" stroke-dasharray="2,3"/><polyline points="800,206 780,270" fill="none" stroke="#c97a3a" stroke-width="1.5" stroke-dasharray="2,3" marker-end="url(#mk_c97a3a_dotted)"/><text x="640" y="250" font-size="10" fill="#c97a3a" text-anchor="start" font-family="'SF Mono', Menlo, monospace">GraphQL (federation)</text><rect x="20" y="456" width="1160" height="200" fill="#fdfbf7" stroke="#e0d8c8" stroke-width="1"/><text x="32" y="472" font-size="12" fill="#8a7a5a" text-anchor="start" font-weight="600">SELF-SERVE DATA PLATFORM</text><rect x="50" y="486" width="165" height="58" fill="#f5edd6" stroke="#c19a6b" stroke-width="1.5" rx="6"/><text x="132.5" y="507.5" font-size="11" fill="#5a3a0a" text-anchor="middle" font-weight="600">Kafka</text><text x="132.5" y="520.5" font-size="9" fill="#7a5a2a" text-anchor="middle" font-family="'SF Mono', Menlo, monospace">Strimzi · KRaft</text><rect x="235" y="486" width="165" height="58" fill="#f5edd6" stroke="#c19a6b" stroke-width="1.5" rx="6"/><text x="317.5" y="502.0" font-size="11" fill="#5a3a0a" text-anchor="middle" font-weight="600">Apicurio Registry</text><text x="317.5" y="515.0" font-size="9" fill="#7a5a2a" text-anchor="middle" font-family="'SF Mono', Menlo, monospace">OpenAPI · proto</text><text x="317.5" y="526.0" font-size="9" fill="#7a5a2a" text-anchor="middle" font-family="'SF Mono', Menlo, monospace">Avro · GraphQL SDL</text><rect x="420" y="486" width="165" height="58" fill="#f5edd6" stroke="#c19a6b" stroke-width="1.5" rx="6"/><text x="502.5" y="507.5" font-size="11" fill="#5a3a0a" text-anchor="middle" font-weight="600">OpenMetadata</text><text x="502.5" y="520.5" font-size="9" fill="#7a5a2a" text-anchor="middle" font-family="'SF Mono', Menlo, monospace">catalog · lineage</text><rect x="605" y="486" width="165" height="58" fill="#f5edd6" stroke="#c19a6b" stroke-width="1.5" rx="6"/><text x="687.5" y="502.0" font-size="11" fill="#5a3a0a" text-anchor="middle" font-weight="600">PostgreSQL (CNPG)</text><text x="687.5" y="515.0" font-size="9" fill="#7a5a2a" text-anchor="middle" font-family="'SF Mono', Menlo, monospace">one cluster ·</text><text x="687.5" y="526.0" font-size="9" fill="#7a5a2a" text-anchor="middle" font-family="'SF Mono', Menlo, monospace">schema per service</text><rect x="790" y="486" width="165" height="58" fill="#e8f0e0" stroke="#5a8a3a" stroke-width="1.5" rx="6"/><text x="872.5" y="507.5" font-size="11" fill="#2a5a1a" text-anchor="middle" font-weight="600">KEDA</text><text x="872.5" y="520.5" font-size="9" fill="#7a5a2a" text-anchor="middle" font-family="'SF Mono', Menlo, monospace">HTTP add-on · Kafka lag</text><rect x="985" y="486" width="165" height="58" fill="#f5edd6" stroke="#c19a6b" stroke-width="1.5" rx="6"/><text x="1067.5" y="507.5" font-size="11" fill="#5a3a0a" text-anchor="middle" font-weight="600">Prefect (OSS)</text><text x="1067.5" y="520.5" font-size="9" fill="#7a5a2a" text-anchor="middle" font-family="'SF Mono', Menlo, monospace">scheduled flows</text><rect x="50" y="580" width="165" height="58" fill="#f5edd6" stroke="#c19a6b" stroke-width="1.5" rx="6"/><text x="132.5" y="601.5" font-size="11" fill="#5a3a0a" text-anchor="middle" font-weight="600">OTEL Collector</text><text x="132.5" y="614.5" font-size="9" fill="#7a5a2a" text-anchor="middle" font-family="'SF Mono', Menlo, monospace">OTLP → Prom/Tempo</text><rect x="235" y="580" width="120" height="58" fill="#f5edd6" stroke="#c19a6b" stroke-width="1.5" rx="6"/><text x="295.0" y="601.5" font-size="11" fill="#5a3a0a" text-anchor="middle" font-weight="600">Prometheus</text><text x="295.0" y="614.5" font-size="9" fill="#7a5a2a" text-anchor="middle" font-family="'SF Mono', Menlo, monospace">metrics</text><rect x="375" y="580" width="120" height="58" fill="#f5edd6" stroke="#c19a6b" stroke-width="1.5" rx="6"/><text x="435.0" y="601.5" font-size="11" fill="#5a3a0a" text-anchor="middle" font-weight="600">Tempo</text><text x="435.0" y="614.5" font-size="9" fill="#7a5a2a" text-anchor="middle" font-family="'SF Mono', Menlo, monospace">traces</text><rect x="515" y="580" width="120" height="58" fill="#f5edd6" stroke="#c19a6b" stroke-width="1.5" rx="6"/><text x="575.0" y="601.5" font-size="11" fill="#5a3a0a" text-anchor="middle" font-weight="600">Grafana</text><text x="575.0" y="614.5" font-size="9" fill="#7a5a2a" text-anchor="middle" font-family="'SF Mono', Menlo, monospace">dashboards</text><rect x="655" y="580" width="120" height="58" fill="#f5edd6" stroke="#c19a6b" stroke-width="1.5" rx="6"/><text x="715.0" y="601.5" font-size="11" fill="#5a3a0a" text-anchor="middle" font-weight="600">Kiali</text><text x="715.0" y="614.5" font-size="9" fill="#7a5a2a" text-anchor="middle" font-family="'SF Mono', Menlo, monospace">mesh viz</text><rect x="795" y="580" width="165" height="58" fill="#e8f0e0" stroke="#5a8a3a" stroke-width="1.5" rx="6"/><text x="877.5" y="601.5" font-size="11" fill="#2a5a1a" text-anchor="middle" font-weight="600">istiod</text><text x="877.5" y="614.5" font-size="9" fill="#7a5a2a" text-anchor="middle" font-family="'SF Mono', Menlo, monospace">mTLS + routing</text><polyline points="130.8,486 150.0,366" fill="none" stroke="#c14a3a" stroke-width="1.5" marker-end="url(#mk_c14a3a_solid)"/><polyline points="139.2,486 360.0,366" fill="none" stroke="#c14a3a" stroke-width="1.5" marker-end="url(#mk_c14a3a_solid)"/><polyline points="147.6,486 570.0,366" fill="none" stroke="#c14a3a" stroke-width="1.5" marker-end="url(#mk_c14a3a_solid)"/><polyline points="156.0,486 780.0,366" fill="none" stroke="#c14a3a" stroke-width="1.5" marker-end="url(#mk_c14a3a_solid)"/><polyline points="164.8,486 1000.0,366" fill="none" stroke="#c14a3a" stroke-width="1.5" marker-end="url(#mk_c14a3a_solid)"/><text x="60" y="482" font-size="10" fill="#c14a3a" text-anchor="start" font-family="'SF Mono', Menlo, monospace">Kafka topics (events)</text><polyline points="150.0,366 130,580" fill="none" stroke="#6a4a8a" stroke-width="1.5" stroke-dasharray="2,3" marker-end="url(#mk_6a4a8a_dotted)"/><polyline points="360.0,366 130,580" fill="none" stroke="#6a4a8a" stroke-width="1.5" stroke-dasharray="2,3" marker-end="url(#mk_6a4a8a_dotted)"/><polyline points="570.0,366 130,580" fill="none" stroke="#6a4a8a" stroke-width="1.5" stroke-dasharray="2,3" marker-end="url(#mk_6a4a8a_dotted)"/><polyline points="780.0,366 130,580" fill="none" stroke="#6a4a8a" stroke-width="1.5" stroke-dasharray="2,3" marker-end="url(#mk_6a4a8a_dotted)"/><text x="45" y="576" font-size="10" fill="#6a4a8a" text-anchor="start" font-family="'SF Mono', Menlo, monospace">OTLP traces+metrics</text><rect x="20" y="672" width="1160" height="80" fill="#fdfbf7" stroke="#e0d8c8" stroke-width="1"/><text x="32" y="688" font-size="12" fill="#8a7a5a" text-anchor="start" font-weight="600">PROTOCOL LEGEND · DEHGHANI&#x27;S FOUR PRINCIPLES</text><polyline points="50,706 96,706" fill="none" stroke="#2c5aa0" stroke-width="1.5" marker-end="url(#mk_2c5aa0_solid)"/><text x="104" y="710" font-size="11" fill="#4a4a4a" text-anchor="start">REST (edge)</text><polyline points="240,706 286,706" fill="none" stroke="#5a8a3a" stroke-width="1.5" stroke-dasharray="6,4" marker-end="url(#mk_5a8a3a_dashed)"/><text x="294" y="710" font-size="11" fill="#4a4a4a" text-anchor="start">gRPC (internal sync)</text><polyline points="450,706 496,706" fill="none" stroke="#c97a3a" stroke-width="1.5" stroke-dasharray="2,3" marker-end="url(#mk_c97a3a_dotted)"/><text x="504" y="710" font-size="11" fill="#4a4a4a" text-anchor="start">GraphQL (federation)</text><polyline points="680,706 726,706" fill="none" stroke="#c14a3a" stroke-width="1.5" marker-end="url(#mk_c14a3a_solid)"/><text x="734" y="710" font-size="11" fill="#4a4a4a" text-anchor="start">Kafka (events)</text><polyline points="880,706 926,706" fill="none" stroke="#6a4a8a" stroke-width="1.5" stroke-dasharray="2,3" marker-end="url(#mk_6a4a8a_dotted)"/><text x="934" y="710" font-size="11" fill="#4a4a4a" text-anchor="start">OTLP (observability)</text><text x="50" y="738" font-size="11" fill="#6a5a3a" text-anchor="start" font-style="italic">Domain ownership  ·  Data as a product  ·  Self-serve data platform  ·  Federated computational governance</text></svg>