<svg xmlns="http://www.w3.org/2000/svg" viewBox="0 0 1180 520" font-family="Helvetica, -apple-system, 'Segoe UI', Roboto, sans-serif"><rect x="0" y="0" width="1180" height="520" fill="#ffffff"/><defs><marker id="mk_1e1e1e_solid" viewBox="0 0 10 10" refX="9" refY="5" markerWidth="6" markerHeight="6" orient="auto"><path d="M0,0 L10,5 L0,10 z" fill="#1e1e1e"/></marker><marker id="mk_2c5aa0_solid" viewBox="0 0 10 10" refX="9" refY="5" markerWidth="6" markerHeight="6" orient="auto"><path d="M0,0 L10,5 L0,10 z" fill="#2c5aa0"/></marker><marker id="mk_b08a5a_dotted" viewBox="0 0 10 10" refX="9" refY="5" markerWidth="6" markerHeight="6" orient="auto"><path d="M0,0 L10,5 L0,10 z" fill="#b08a5a"/></marker></defs><text x="590.0" y="30" font-size="18" fill="#2a2a2a" text-anchor="middle" font-weight="700">How analytical data is composed inside a domain</text><text x="590.0" y="49" font-size="12" fill="#666666" text-anchor="middle" font-style="italic">operational data refined into a served data product</text><rect x="80" y="90" width="1020" height="360" fill="#fdfbef" stroke="#d8c89a" stroke-width="1.5" rx="6"/><text x="590.0" y="274.5" font-size="13" fill="#d8c89a" text-anchor="middle" font-weight="600"></text><text x="590" y="114" font-size="12" fill="#8a7a5a" text-anchor="middle" font-weight="600">Domain</text><rect x="120" y="200" width="130" height="60" fill="#ffffff" stroke="#9a9a9a" stroke-width="1.5" rx="6"/><text x="185.0" y="233.5" font-size="11" fill="#3a3a3a" text-anchor="middle" font-weight="600">Operational data</text><rect x="310" y="200" width="110" height="60" fill="#e8eef7" stroke="#2c5aa0" stroke-width="1.5" rx="6"/><text x="365.0" y="234.0" font-size="12" fill="#1a3a6a" text-anchor="middle" font-weight="600">Raw data</text><polyline points="250,230 310,230" fill="none" stroke="#1e1e1e" stroke-width="1.5" marker-end="url(#mk_1e1e1e_solid)"/><text x="280" y="222" font-size="9" fill="#666666" text-anchor="middle" font-family="'SF Mono', Menlo, monospace">ingest</text><rect x="480" y="150" width="130" height="50" fill="#fdf3d6" stroke="#c19a6b" stroke-width="1.5" rx="6"/><text x="545.0" y="178.5" font-size="11" fill="#5a3a0a" text-anchor="middle" font-weight="600">Events</text><polyline points="420,230 480,175" fill="none" stroke="#b08a5a" stroke-width="1.5" stroke-dasharray="2,3" marker-end="url(#mk_b08a5a_dotted)"/><rect x="480" y="224" width="130" height="50" fill="#fdf3d6" stroke="#c19a6b" stroke-width="1.5" rx="6"/><text x="545.0" y="252.5" font-size="11" fill="#5a3a0a" text-anchor="middle" font-weight="600">Entities</text><polyline points="420,230 480,249" fill="none" stroke="#b08a5a" stroke-width="1.5" stroke-dasharray="2,3" marker-end="url(#mk_b08a5a_dotted)"/><rect x="480" y="298" width="130" height="50" fill="#fdf3d6" stroke="#c19a6b" stroke-width="1.5" rx="6"/><text x="545.0" y="326.5" font-size="11" fill="#5a3a0a" text-anchor="middle" font-weight="600">Aggregates</text><polyline points="420,230 480,323" fill="none" stroke="#b08a5a" stroke-width="1.5" stroke-dasharray="2,3" marker-end="url(#mk_b08a5a_dotted)"/><rect x="480" y="372" width="130" height="50" fill="#fdf3d6" stroke="#c19a6b" stroke-width="1.5" rx="6"/><text x="545.0" y="400.5" font-size="11" fill="#5a3a0a" text-anchor="middle" font-weight="600">External</text><polyline points="420,230 480,397" fill="none" stroke="#b08a5a" stroke-width="1.5" stroke-dasharray="2,3" marker-end="url(#mk_b08a5a_dotted)"/><rect x="720" y="224" width="130" height="60" fill="#fdf3d6" stroke="#c19a6b" stroke-width="1.5" rx="6"/><text x="785.0" y="257.5" font-size="11" fill="#5a3a0a" text-anchor="middle" font-weight="600">Published view</text><polyline points="610,175 720,254" fill="none" stroke="#b08a5a" stroke-width="1.5" stroke-dasharray="2,3" marker-end="url(#mk_b08a5a_dotted)"/><polyline points="610,249 720,254" fill="none" stroke="#b08a5a" stroke-width="1.5" stroke-dasharray="2,3" marker-end="url(#mk_b08a5a_dotted)"/><polyline points="610,323 720,254" fill="none" stroke="#b08a5a" stroke-width="1.5" stroke-dasharray="2,3" marker-end="url(#mk_b08a5a_dotted)"/><polyline points="610,397 720,254" fill="none" stroke="#b08a5a" stroke-width="1.5" stroke-dasharray="2,3" marker-end="url(#mk_b08a5a_dotted)"/><rect x="920" y="224" width="130" height="60" fill="#e8eef7" stroke="#2c5aa0" stroke-width="1.5" rx="6"/><text x="985.0" y="258.0" font-size="12" fill="#1a3a6a" text-anchor="middle" font-weight="600">Data product</text><polyline points="850,254 920,254" fill="none" stroke="#2c5aa0" stroke-width="1.5" marker-end="url(#mk_2c5aa0_solid)"/><text x="885" y="246" font-size="9" fill="#2c5aa0" text-anchor="middle" font-family="'SF Mono', Menlo, monospace">publish</text><rect x="120" y="360" width="130" height="56" fill="#e8eef7" stroke="#2c5aa0" stroke-width="1.5" rx="6"/><text x="185.0" y="391.5" font-size="11" fill="#1a3a6a" text-anchor="middle" font-weight="600">Analytics</text><text x="590.0" y="490" font-size="12" fill="#6a5a3a" text-anchor="middle" font-style="italic">Events are immutable business facts; entities are stateful business objects; both refine raw data into a product others can use.</text></svg>