<svg xmlns="http://www.w3.org/2000/svg" viewBox="0 0 1080 630" font-family="Helvetica, -apple-system, 'Segoe UI', Roboto, sans-serif"><rect x="0" y="0" width="1080" height="630" fill="#ffffff"/><defs><marker id="mk_8a8a8a_solid" viewBox="0 0 10 10" refX="9" refY="5" markerWidth="6" markerHeight="6" orient="auto"><path d="M0,0 L10,5 L0,10 z" fill="#8a8a8a"/></marker></defs><text x="540.0" y="30" font-size="18" fill="#2a2a2a" text-anchor="middle" font-weight="700">The central data team becomes the bottleneck</text><text x="540.0" y="49" font-size="12" fill="#666666" text-anchor="middle" font-style="italic">every domain and stakeholder queues behind one team</text><polyline points="540.0,142.0 540.0,268.0" fill="none" stroke="#8a8a8a" stroke-width="1.5" marker-end="url(#mk_8a8a8a_solid)"/><polyline points="731.2842420633149,191.3860653541326 643.0736369050276,298.2519983763681" fill="none" stroke="#8a8a8a" stroke-width="1.5" marker-end="url(#mk_8a8a8a_solid)"/><polyline points="825.268858116665,357.37870218465747 659.5967128250026,335.07876451722615" fill="none" stroke="#8a8a8a" stroke-width="1.5" marker-end="url(#mk_8a8a8a_solid)"/><polyline points="735.4087102193681,501.11946914104607 636.8869346709478,366.5810285392232" fill="none" stroke="#8a8a8a" stroke-width="1.5" marker-end="url(#mk_8a8a8a_solid)"/><polyline points="540.0,528.0 540.0,392.0" fill="none" stroke="#8a8a8a" stroke-width="1.5" marker-end="url(#mk_8a8a8a_solid)"/><polyline points="344.5912897806318,501.11946914104607 443.11306532905223,366.5810285392232" fill="none" stroke="#8a8a8a" stroke-width="1.5" marker-end="url(#mk_8a8a8a_solid)"/><polyline points="254.73114188333506,357.37870218465747 420.40328717499744,335.07876451722615" fill="none" stroke="#8a8a8a" stroke-width="1.5" marker-end="url(#mk_8a8a8a_solid)"/><polyline points="348.71575793668507,191.3860653541326 436.92636309497243,298.2519983763681" fill="none" stroke="#8a8a8a" stroke-width="1.5" marker-end="url(#mk_8a8a8a_solid)"/><rect x="465" y="84" width="150" height="52" fill="#efefef" stroke="#4a4a4a" stroke-width="1" rx="6"/><text x="540.0" y="113.5" font-size="11" fill="#2a2a2a" text-anchor="middle" font-weight="600">CEO</text><rect x="725" y="149" width="150" height="52" fill="#efefef" stroke="#4a4a4a" stroke-width="1" rx="6"/><text x="800.0" y="178.5" font-size="11" fill="#2a2a2a" text-anchor="middle" font-weight="600">CFO</text><rect x="830" y="334" width="150" height="52" fill="#efefef" stroke="#4a4a4a" stroke-width="1" rx="6"/><text x="905.0" y="363.5" font-size="11" fill="#2a2a2a" text-anchor="middle" font-weight="600">Marketing</text><rect x="725" y="494" width="150" height="52" fill="#efefef" stroke="#4a4a4a" stroke-width="1" rx="6"/><text x="800.0" y="523.5" font-size="11" fill="#2a2a2a" text-anchor="middle" font-weight="600">Domain team</text><rect x="465" y="534" width="150" height="52" fill="#efefef" stroke="#4a4a4a" stroke-width="1" rx="6"/><text x="540.0" y="563.5" font-size="11" fill="#2a2a2a" text-anchor="middle" font-weight="600">Domain team</text><rect x="205" y="494" width="150" height="52" fill="#efefef" stroke="#4a4a4a" stroke-width="1" rx="6"/><text x="280.0" y="523.5" font-size="11" fill="#2a2a2a" text-anchor="middle" font-weight="600">Domain team</text><rect x="100" y="334" width="150" height="52" fill="#efefef" stroke="#4a4a4a" stroke-width="1" rx="6"/><text x="175.0" y="363.5" font-size="11" fill="#2a2a2a" text-anchor="middle" font-weight="600">Domain team</text><rect x="205" y="149" width="150" height="52" fill="#efefef" stroke="#4a4a4a" stroke-width="1" rx="6"/><text x="280.0" y="178.5" font-size="11" fill="#2a2a2a" text-anchor="middle" font-weight="600">Domain team</text><rect x="430" y="275" width="220" height="110" fill="#fbe4e4" stroke="#c14a3a" stroke-width="1.5" rx="6"/><text x="540.0" y="316.0" font-size="14" fill="#7a2a1a" text-anchor="middle" font-weight="600">Central data team</text><text x="540.0" y="332.0" font-size="10" fill="#7a5a2a" text-anchor="middle" font-family="'SF Mono', Menlo, monospace">owns the lake &amp; warehouse</text><text x="540.0" y="344.0" font-size="10" fill="#7a5a2a" text-anchor="middle" font-family="'SF Mono', Menlo, monospace">not the domains</text><text x="540.0" y="612" font-size="12" fill="#7a2a1a" text-anchor="middle" font-style="italic">As sources, consumers and use cases multiply, the centralized model cannot keep up.</text></svg>