<svg xmlns="http://www.w3.org/2000/svg" viewBox="0 0 1180 440" font-family="Helvetica, -apple-system, 'Segoe UI', Roboto, sans-serif"><rect x="0" y="0" width="1180" height="440" fill="#ffffff"/><defs><marker id="mk_4a78a8_solid" viewBox="0 0 10 10" refX="9" refY="5" markerWidth="6" markerHeight="6" orient="auto"><path d="M0,0 L10,5 L0,10 z" fill="#4a78a8"/></marker><marker id="mk_c14a3a_solid" viewBox="0 0 10 10" refX="9" refY="5" markerWidth="6" markerHeight="6" orient="auto"><path d="M0,0 L10,5 L0,10 z" fill="#c14a3a"/></marker><marker id="mk_c19a6b_solid" viewBox="0 0 10 10" refX="9" refY="5" markerWidth="6" markerHeight="6" orient="auto"><path d="M0,0 L10,5 L0,10 z" fill="#c19a6b"/></marker></defs><text x="590.0" y="30" font-size="18" fill="#2a2a2a" text-anchor="middle" font-weight="700">Ingestion, streaming and sourcing</text><text x="590.0" y="49" font-size="12" fill="#666666" text-anchor="middle" font-style="italic">domain events and change-data-capture feed the analytical side</text><rect x="70" y="90" width="520" height="280" fill="#fdfbf2" stroke="#c19a6b" stroke-width="1.5" rx="6"/><text x="330.0" y="234.5" font-size="13" fill="#c19a6b" text-anchor="middle" font-weight="600"></text><text x="330" y="114" font-size="13" fill="#5a3a0a" text-anchor="middle" font-weight="700">Operational data</text><rect x="110" y="170" width="140" height="80" fill="#e8eef7" stroke="#2c5aa0" stroke-width="1.5" rx="6"/><text x="180.0" y="214.0" font-size="12" fill="#1a3a6a" text-anchor="middle" font-weight="600">Microservice</text><rect x="110" y="280" width="140" height="70" fill="#ffffff" stroke="#9a9a9a" stroke-width="1.5" rx="6"/><text x="180.0" y="318.5" font-size="11" fill="#3a3a3a" text-anchor="middle" font-weight="600">Database</text><rect x="330" y="165" width="150" height="50" fill="#fdf3d6" stroke="#c14a3a" stroke-width="1.5" rx="6"/><text x="405.0" y="182.5" font-size="11" fill="#c14a3a" text-anchor="middle" font-weight="600">Messaging</text><text x="405.0" y="195.5" font-size="9" fill="#7a5a2a" text-anchor="middle" font-family="'SF Mono', Menlo, monospace">events</text><rect x="330" y="285" width="150" height="55" fill="#fdf3d6" stroke="#c19a6b" stroke-width="1.5" rx="6"/><text x="405.0" y="305.0" font-size="11" fill="#5a3a0a" text-anchor="middle" font-weight="600">CDC stream</text><text x="405.0" y="318.0" font-size="9" fill="#7a5a2a" text-anchor="middle" font-family="'SF Mono', Menlo, monospace">Debezium-style</text><polyline points="250,190 330,190" fill="none" stroke="#c14a3a" stroke-width="1.5" marker-end="url(#mk_c14a3a_solid)"/><text x="290" y="182" font-size="9" fill="#c14a3a" text-anchor="middle" font-family="'SF Mono', Menlo, monospace">publish</text><polyline points="250,312 330,312" fill="none" stroke="#c19a6b" stroke-width="1.5" marker-end="url(#mk_c19a6b_solid)"/><text x="290" y="304" font-size="9" fill="#666666" text-anchor="middle" font-family="'SF Mono', Menlo, monospace">persist+capture</text><rect x="680" y="90" width="430" height="280" fill="#f3f7fb" stroke="#4a78a8" stroke-width="1.5" rx="6"/><text x="895.0" y="234.5" font-size="13" fill="#4a78a8" text-anchor="middle" font-weight="600"></text><text x="895" y="114" font-size="13" fill="#234a6a" text-anchor="middle" font-weight="700">Analytical data</text><rect x="710" y="200" width="140" height="70" fill="#e3eef7" stroke="#4a78a8" stroke-width="1.5" rx="6"/><text x="780.0" y="239.0" font-size="12" fill="#234a6a" text-anchor="middle" font-weight="600">Raw data</text><rect x="940" y="160" width="140" height="55" fill="#e3eef7" stroke="#4a78a8" stroke-width="1.5" rx="6"/><text x="1010.0" y="191.0" font-size="11" fill="#234a6a" text-anchor="middle" font-weight="600">Events</text><rect x="940" y="250" width="140" height="55" fill="#e3eef7" stroke="#4a78a8" stroke-width="1.5" rx="6"/><text x="1010.0" y="281.0" font-size="11" fill="#234a6a" text-anchor="middle" font-weight="600">Entities</text><polyline points="480,190 710,225" fill="none" stroke="#c14a3a" stroke-width="1.5" marker-end="url(#mk_c14a3a_solid)"/><text x="595" y="200" font-size="9" fill="#c14a3a" text-anchor="middle" font-family="'SF Mono', Menlo, monospace">stream / ingest</text><polyline points="480,312 710,245" fill="none" stroke="#4a78a8" stroke-width="1.5" marker-end="url(#mk_4a78a8_solid)"/><text x="595" y="290" font-size="9" fill="#4a78a8" text-anchor="middle" font-family="'SF Mono', Menlo, monospace">batch</text><polyline points="850,225 940,188" fill="none" stroke="#4a78a8" stroke-width="1.5" marker-end="url(#mk_4a78a8_solid)"/><polyline points="850,245 940,278" fill="none" stroke="#4a78a8" stroke-width="1.5" marker-end="url(#mk_4a78a8_solid)"/><text x="895" y="330" font-size="9" fill="#666666" text-anchor="middle" font-family="'SF Mono', Menlo, monospace">clean → model</text></svg>