<svg xmlns="http://www.w3.org/2000/svg" viewBox="0 0 1180 620" font-family="Helvetica, -apple-system, 'Segoe UI', Roboto, sans-serif"><rect x="0" y="0" width="1180" height="620" fill="#ffffff"/><defs><marker id="mk_1e1e1e_solid" viewBox="0 0 10 10" refX="9" refY="5" markerWidth="6" markerHeight="6" orient="auto"><path d="M0,0 L10,5 L0,10 z" fill="#1e1e1e"/></marker><marker id="mk_2c5aa0_solid" viewBox="0 0 10 10" refX="9" refY="5" markerWidth="6" markerHeight="6" orient="auto"><path d="M0,0 L10,5 L0,10 z" fill="#2c5aa0"/></marker><marker id="mk_5a8a3a_dashed" viewBox="0 0 10 10" refX="9" refY="5" markerWidth="6" markerHeight="6" orient="auto"><path d="M0,0 L10,5 L0,10 z" fill="#5a8a3a"/></marker></defs><text x="590.0" y="30" font-size="18" fill="#2a2a2a" text-anchor="middle" font-weight="700">Logical data mesh architecture</text><text x="590.0" y="49" font-size="12" fill="#666666" text-anchor="middle" font-style="italic">governance on top, data products in the middle, a self-serve platform underneath</text><rect x="40" y="78" width="940" height="56" fill="#e8f0e0" stroke="#5a8a3a" stroke-width="1.5" rx="6"/><text x="510.0" y="110.5" font-size="13" fill="#5a8a3a" text-anchor="middle" font-weight="600"></text><text x="60" y="100" font-size="12" fill="#2a5a1a" text-anchor="start" font-weight="600">Federated governance</text><rect x="250" y="90" width="140" height="32" fill="#ffffff" stroke="#5a8a3a" stroke-width="1" rx="6"/><text x="320.0" y="109.0" font-size="10" fill="#2a5a1a" text-anchor="middle" font-weight="600">Interoperability</text><rect x="400" y="90" width="140" height="32" fill="#ffffff" stroke="#5a8a3a" stroke-width="1" rx="6"/><text x="470.0" y="109.0" font-size="10" fill="#2a5a1a" text-anchor="middle" font-weight="600">Documentation</text><rect x="550" y="90" width="140" height="32" fill="#ffffff" stroke="#5a8a3a" stroke-width="1" rx="6"/><text x="620.0" y="109.0" font-size="10" fill="#2a5a1a" text-anchor="middle" font-weight="600">Security</text><rect x="700" y="90" width="140" height="32" fill="#ffffff" stroke="#5a8a3a" stroke-width="1" rx="6"/><text x="770.0" y="109.0" font-size="10" fill="#2a5a1a" text-anchor="middle" font-weight="600">Privacy</text><rect x="850" y="90" width="140" height="32" fill="#ffffff" stroke="#5a8a3a" stroke-width="1" rx="6"/><text x="920.0" y="109.0" font-size="10" fill="#2a5a1a" text-anchor="middle" font-weight="600">Compliance</text><rect x="60" y="168" width="700" height="300" fill="#fdfbef" stroke="#d8c89a" stroke-width="1.5" rx="6"/><text x="410.0" y="322.5" font-size="13" fill="#d8c89a" text-anchor="middle" font-weight="600"></text><text x="410" y="192" font-size="12" fill="#8a7a5a" text-anchor="middle" font-weight="600">Data products across domains</text><rect x="95" y="230" width="110" height="50" fill="#ffffff" stroke="#9a9a9a" stroke-width="1.5" rx="6"/><text x="150.0" y="258.0" font-size="10" fill="#3a3a3a" text-anchor="middle" font-weight="600">Operational</text><rect x="235" y="230" width="110" height="50" fill="#e8eef7" stroke="#2c5aa0" stroke-width="1.5" rx="6"/><text x="290.0" y="258.0" font-size="10" fill="#1a3a6a" text-anchor="middle" font-weight="600">Analytical</text><rect x="375" y="230" width="110" height="50" fill="#e8eef7" stroke="#2c5aa0" stroke-width="1.5" rx="6"/><text x="430.0" y="258.0" font-size="10" fill="#1a3a6a" text-anchor="middle" font-weight="600">Data product</text><polyline points="205,255 235,255" fill="none" stroke="#1e1e1e" stroke-width="1.5" marker-end="url(#mk_1e1e1e_solid)"/><polyline points="345,255 375,255" fill="none" stroke="#2c5aa0" stroke-width="1.5" marker-end="url(#mk_2c5aa0_solid)"/><rect x="95" y="330" width="110" height="50" fill="#ffffff" stroke="#9a9a9a" stroke-width="1.5" rx="6"/><text x="150.0" y="358.0" font-size="10" fill="#3a3a3a" text-anchor="middle" font-weight="600">Operational</text><rect x="235" y="330" width="110" height="50" fill="#e8eef7" stroke="#2c5aa0" stroke-width="1.5" rx="6"/><text x="290.0" y="358.0" font-size="10" fill="#1a3a6a" text-anchor="middle" font-weight="600">Analytical</text><rect x="375" y="330" width="110" height="50" fill="#e8eef7" stroke="#2c5aa0" stroke-width="1.5" rx="6"/><text x="430.0" y="358.0" font-size="10" fill="#1a3a6a" text-anchor="middle" font-weight="600">Data product</text><polyline points="205,355 235,355" fill="none" stroke="#1e1e1e" stroke-width="1.5" marker-end="url(#mk_1e1e1e_solid)"/><polyline points="345,355 375,355" fill="none" stroke="#2c5aa0" stroke-width="1.5" marker-end="url(#mk_2c5aa0_solid)"/><polyline points="485,280 510,280" fill="none" stroke="#5a8a3a" stroke-width="1.5" stroke-dasharray="6,4" marker-end="url(#mk_5a8a3a_dashed)"/><rect x="510" y="250" width="210" height="70" fill="#e8eef7" stroke="#2c5aa0" stroke-width="1.5" rx="6"/><text x="615.0" y="272.0" font-size="11" fill="#1a3a6a" text-anchor="middle" font-weight="600">Consumer-aligned</text><text x="615.0" y="285.0" font-size="9" fill="#7a5a2a" text-anchor="middle" font-family="'SF Mono', Menlo, monospace">product built from</text><text x="615.0" y="296.0" font-size="9" fill="#7a5a2a" text-anchor="middle" font-family="'SF Mono', Menlo, monospace">other domains&#x27; products</text><text x="410" y="430" font-size="11" fill="#666666" text-anchor="middle" font-style="italic">domains serve and consume one another&#x27;s products</text><rect x="800" y="168" width="180" height="300" fill="#fbe4e4" stroke="#c14a3a" stroke-width="1.5" rx="6"/><text x="890.0" y="322.5" font-size="13" fill="#c14a3a" text-anchor="middle" font-weight="600"></text><text x="890" y="192" font-size="12" fill="#7a2a1a" text-anchor="middle" font-weight="600">Enabling team</text><rect x="820" y="220" width="140" height="44" fill="#ffffff" stroke="#c14a3a" stroke-width="1" rx="6"/><text x="890.0" y="245.5" font-size="11" fill="#7a2a1a" text-anchor="middle" font-weight="600">Consulting</text><rect x="820" y="276" width="140" height="44" fill="#ffffff" stroke="#c14a3a" stroke-width="1" rx="6"/><text x="890.0" y="301.5" font-size="11" fill="#7a2a1a" text-anchor="middle" font-weight="600">Examples</text><rect x="820" y="332" width="140" height="44" fill="#ffffff" stroke="#c14a3a" stroke-width="1" rx="6"/><text x="890.0" y="357.5" font-size="11" fill="#7a2a1a" text-anchor="middle" font-weight="600">Best practices</text><rect x="820" y="388" width="140" height="44" fill="#ffffff" stroke="#c14a3a" stroke-width="1" rx="6"/><text x="890.0" y="413.5" font-size="11" fill="#7a2a1a" text-anchor="middle" font-weight="600">Templates</text><rect x="40" y="500" width="940" height="70" fill="#f5edd6" stroke="#c19a6b" stroke-width="1.5" rx="6"/><text x="510.0" y="539.5" font-size="13" fill="#c19a6b" text-anchor="middle" font-weight="600"></text><text x="60" y="522" font-size="12" fill="#5a3a0a" text-anchor="start" font-weight="600">Self-serve data platform</text><rect x="250" y="528" width="140" height="32" fill="#ffffff" stroke="#c19a6b" stroke-width="1" rx="6"/><text x="320.0" y="547.0" font-size="10" fill="#5a3a0a" text-anchor="middle" font-weight="600">Storage &amp; query</text><rect x="400" y="528" width="140" height="32" fill="#ffffff" stroke="#c19a6b" stroke-width="1" rx="6"/><text x="470.0" y="547.0" font-size="10" fill="#5a3a0a" text-anchor="middle" font-weight="600">Catalog</text><rect x="550" y="528" width="140" height="32" fill="#ffffff" stroke="#c19a6b" stroke-width="1" rx="6"/><text x="620.0" y="547.0" font-size="10" fill="#5a3a0a" text-anchor="middle" font-weight="600">Access mgmt</text><rect x="700" y="528" width="140" height="32" fill="#ffffff" stroke="#c19a6b" stroke-width="1" rx="6"/><text x="770.0" y="547.0" font-size="10" fill="#5a3a0a" text-anchor="middle" font-weight="600">Monitoring</text><rect x="850" y="528" width="140" height="32" fill="#ffffff" stroke="#c19a6b" stroke-width="1" rx="6"/><text x="920.0" y="547.0" font-size="10" fill="#5a3a0a" text-anchor="middle" font-weight="600">Policy automation</text></svg>