<svg xmlns="http://www.w3.org/2000/svg" viewBox="0 0 1180 460" font-family="Helvetica, -apple-system, 'Segoe UI', Roboto, sans-serif"><rect x="0" y="0" width="1180" height="460" fill="#ffffff"/><defs><marker id="mk_1e1e1e_solid" viewBox="0 0 10 10" refX="9" refY="5" markerWidth="6" markerHeight="6" orient="auto"><path d="M0,0 L10,5 L0,10 z" fill="#1e1e1e"/></marker><marker id="mk_2c5aa0_solid" viewBox="0 0 10 10" refX="9" refY="5" markerWidth="6" markerHeight="6" orient="auto"><path d="M0,0 L10,5 L0,10 z" fill="#2c5aa0"/></marker></defs><text x="590.0" y="30" font-size="18" fill="#2a2a2a" text-anchor="middle" font-weight="700">Operational vs. analytical data</text><text x="590.0" y="49" font-size="12" fill="#666666" text-anchor="middle" font-style="italic">two planes, historically bridged by fragile pipelines</text><rect x="70" y="90" width="380" height="240" fill="#fdfbf2" stroke="#c19a6b" stroke-width="1.5" rx="6"/><text x="260.0" y="214.5" font-size="13" fill="#c19a6b" text-anchor="middle" font-weight="600"></text><text x="260" y="116" font-size="14" fill="#5a3a0a" text-anchor="middle" font-weight="700">Operational data plane</text><rect x="110" y="140" width="130" height="60" fill="#e8eef7" stroke="#2c5aa0" stroke-width="1.5" rx="6"/><text x="175.0" y="173.5" font-size="11" fill="#1a3a6a" text-anchor="middle" font-weight="600">Microservice</text><rect x="110" y="220" width="130" height="60" fill="#e8eef7" stroke="#2c5aa0" stroke-width="1.5" rx="6"/><text x="175.0" y="253.5" font-size="11" fill="#1a3a6a" text-anchor="middle" font-weight="600">Microservice</text><rect x="290" y="180" width="120" height="60" fill="#ffffff" stroke="#9a9a9a" stroke-width="1.5" rx="6"/><text x="350.0" y="213.5" font-size="11" fill="#3a3a3a" text-anchor="middle" font-weight="600">Database</text><polyline points="240,170 290,200" fill="none" stroke="#2c5aa0" stroke-width="1.5" marker-end="url(#mk_2c5aa0_solid)"/><polyline points="240,250 290,220" fill="none" stroke="#2c5aa0" stroke-width="1.5" marker-end="url(#mk_2c5aa0_solid)"/><text x="260" y="350" font-size="11" fill="#666666" text-anchor="middle" font-style="italic">running the business · serving users</text><rect x="490" y="175" width="200" height="70" fill="#f3f3f3" stroke="#8a8a8a" stroke-width="1.5" rx="6"/><text x="590.0" y="202.5" font-size="11" fill="#3a3a3a" text-anchor="middle" font-weight="600">Data pipeline (ETL / CDC)</text><text x="590.0" y="215.5" font-size="9" fill="#7a5a2a" text-anchor="middle" font-family="'SF Mono', Menlo, monospace">batch · streaming · change-data-capture</text><polyline points="450,210 490,210" fill="none" stroke="#1e1e1e" stroke-width="1.5" marker-end="url(#mk_1e1e1e_solid)"/><polyline points="690,210 730,210" fill="none" stroke="#1e1e1e" stroke-width="1.5" marker-end="url(#mk_1e1e1e_solid)"/><rect x="730" y="90" width="380" height="240" fill="#f3f7fb" stroke="#4a78a8" stroke-width="1.5" rx="6"/><text x="920.0" y="214.5" font-size="13" fill="#4a78a8" text-anchor="middle" font-weight="600"></text><text x="920" y="116" font-size="14" fill="#234a6a" text-anchor="middle" font-weight="700">Analytical data plane</text><rect x="770" y="150" width="140" height="60" fill="#e3eef7" stroke="#4a78a8" stroke-width="1.5" rx="6"/><text x="840.0" y="183.5" font-size="11" fill="#234a6a" text-anchor="middle" font-weight="600">Data lake</text><rect x="960" y="150" width="130" height="60" fill="#e3eef7" stroke="#4a78a8" stroke-width="1.5" rx="6"/><text x="1025.0" y="183.5" font-size="11" fill="#234a6a" text-anchor="middle" font-weight="600">Warehouse</text><rect x="860" y="235" width="160" height="55" fill="#e3eef7" stroke="#4a78a8" stroke-width="1.5" rx="6"/><text x="940.0" y="266.0" font-size="11" fill="#234a6a" text-anchor="middle" font-weight="600">BI / ML / reports</text><text x="920" y="350" font-size="11" fill="#666666" text-anchor="middle" font-style="italic">optimizing the business · augmenting decisions</text><text x="590.0" y="420" font-size="12" fill="#6a5a3a" text-anchor="middle" font-style="italic">A mesh keeps both planes owned by the domain — it does not hand analytical data to a separate team.</text></svg>